:SAMPLES-PER-SECOND 30
:FULLY-SPECIFIED
:DEGREES
490
root  69.0234 38.1159 -1.12739 -119.29 -82.2238 114.193
RightUpLeg  -13.305 0.897453 -13.0523
RightLeg  62.3489 3.35244 6.4144
RightFoot  2.00511 -1.11236 9.68303
RightToes  -2.9104e-010 0 -3.6325e-017
Spine  8.4869 2.82742 -2.29115
Spine1  4.68957 4.08666 -9.21313
HEad  9.35731 -43.4634 -1.64944
LeftShoulder1  -0.33505 4.44614 -29.4733
LeftArm  1.16851 14.6579 -38.3768
LeftForeArm  22.2815 -21.5993 -3.97479
LeftHand  -0.0126609 8.54369 1.09938
RightShoulder  -0.722751 -5.66921 26.5929
RightArm  -4.51237 28.797 36.1524
RightForeArm  -13.6366 3.00707 2.33876
RightHand  -0.535767 10.2465 -4.36931
LeftUpLeg  -8.60457 4.81946 -9.68196
LeftLeg  19.1865 7.99555 1.13195
LeftFoot  -6.51282 -0.268273 7.26716
LeftToes  -3.37426e-010 -1.91496e-010 5.23909e-011
491
root  68.2287 38.1692 -1.12079 -119.964 -82.474 114.964
RightUpLeg  -16.4874 0.521924 -12.6666
RightLeg  60.0408 3.09072 5.32635
RightFoot  -0.699885 -1.11795 11.8549
RightToes  -2.9104e-010 0 -3.6325e-017
Spine  9.24254 2.94718 -2.65731
Spine1  2.95684 3.9073 -8.43987
HEad  10.0836 -44.0354 -2.28981
LeftShoulder1  -0.0682943 3.6918 -29.8349
LeftArm  0.00768512 13.9133 -37.4067
LeftForeArm  22.7882 -23.1851 -3.8298
LeftHand  -0.0452287 7.27751 -0.205234
RightShoulder  -0.487622 -5.06984 24.4496
RightArm  -7.16591 30.4222 33.457
RightForeArm  -15.6223 2.36555 1.66198
RightHand  -0.63437 10.6508 -4.99006
LeftUpLeg  -7.14785 4.78295 -9.29413
LeftLeg  18.829 8.07516 0.865918
LeftFoot  -7.86991 -0.16717 7.09565
LeftToes  -3.37426e-010 -1.91496e-010 5.23909e-011
492
root  67.4174 38.2942 -1.08166 -118.895 -83.2508 113.715
RightUpLeg  -18.1066 -0.53661 -11.8631
RightLeg  54.4334 3.08782 4.26758
RightFoot  -1.88501 -0.932913 11.0905
RightToes  -2.9104e-010 0 -3.6325e-017
Spine  9.5643 2.34902 -1.82051
Spine1  2.81309 3.46655 -8.51488
HEad  9.98952 -44.0664 -2.11943
LeftShoulder1  0.0647479 3.32339 -29.3524
LeftArm  -2.30907 13.0257 -37.1268
LeftForeArm  23.3393 -25.0298 -4.11845
LeftHand  -0.0288946 6.63029 0.626636
RightShoulder  -0.569284 -5.40181 23.1801
RightArm  -9.38957 34.0592 31.5137
RightForeArm  -16.9735 0.977867 1.16811
RightHand  -0.681623 10.4216 -5.39439
LeftUpLeg  -5.09889 4.98239 -8.64282
LeftLeg  17.9394 7.2782 0.501208
LeftFoot  -8.73737 -0.113505 7.271
LeftToes  -3.37426e-010 -1.91496e-010 5.23909e-011
493
root  66.5991 38.4045 -1.04882 -116.574 -84.0562 111.758
RightUpLeg  -19.283 -2.09097 -10.9522
RightLeg  46.1183 3.3568 3.39081
RightFoot  -1.91758 -0.830057 9.89252
RightToes  -2.9104e-010 0 -3.6325e-017
Spine  8.66426 1.79765 -1.22777
Spine1  3.57554 3.03166 -8.00089
HEad  8.96121 -44.0779 -1.26568
LeftShoulder1  -0.0841797 3.74367 -28.8318
LeftArm  -3.44942 11.8889 -37.0067
LeftForeArm  23.8865 -27.4699 -4.62695
LeftHand  -0.0136754 6.68486 1.64145
RightShoulder  -0.369451 -4.78788 21.6188
RightArm  -12.1966 36.6112 28.838
RightForeArm  -17.0939 -0.411327 0.411268
RightHand  -0.588461 10.2692 -4.75834
LeftUpLeg  -3.71519 4.93485 -8.10528
LeftLeg  17.2657 6.82761 0.538108
LeftFoot  -9.71874 -0.0372521 6.77079
LeftToes  -3.37426e-010 -1.91496e-010 5.23909e-011
494
root  65.759 38.5099 -1.03324 -114.531 -84.2986 109.952
RightUpLeg  -19.2137 -3.66848 -10.5243
RightLeg  35.2917 4.36609 3.08979
RightFoot  -1.47594 -0.859762 9.81992
RightToes  -2.9104e-010 0 -3.6325e-017
Spine  7.39549 1.75344 -0.558623
Spine1  5.16387 3.2407 -7.73076
HEad  8.25699 -44.7652 -0.554469
LeftShoulder1  0.0889449 3.246 -28.461
LeftArm  -4.86233 10.2857 -37.0756
LeftForeArm  24.3323 -28.9032 -4.92713
LeftHand  0.0125146 7.2542 2.80579
RightShoulder  -0.162612 -4.09841 20.0654
RightArm  -14.6304 37.9429 25.3704
RightForeArm  -18.2853 -1.70511 -0.10892
RightHand  -0.556359 10.6216 -4.43235
LeftUpLeg  -1.70027 4.89848 -7.86046
LeftLeg  15.6081 6.66349 0.18584
LeftFoot  -10.394 0.00950192 6.4122
LeftToes  -3.37426e-010 -1.91496e-010 5.23909e-011
495
root  64.8825 38.5102 -1.09754 -113.236 -84.196 109.05
RightUpLeg  -18.743 -3.81756 -10.2724
RightLeg  23.4357 4.77027 2.1168
RightFoot  -1.26548 -0.900004 10.0856
RightToes  -2.9104e-010 0 -3.6325e-017
Spine  7.59604 1.90247 -0.354277
Spine1  4.54566 3.51886 -7.83102
HEad  8.00565 -45.6288 -0.377054
LeftShoulder1  0.182071 2.96983 -27.907
LeftArm  -5.52252 9.3814 -36.8986
LeftForeArm  25.9346 -30.2621 -5.1546
LeftHand  -0.0258754 5.88186 1.42124
RightShoulder  -0.283896 -4.58859 18.8843
RightArm  -15.9111 39.2479 22.8899
RightForeArm  -19.521 -2.91862 -0.221237
RightHand  -0.582902 10.6853 -4.61104
LeftUpLeg  -0.255396 5.13431 -7.7186
LeftLeg  14.8689 6.42958 -0.160765
LeftFoot  -11.4401 0.0743573 6.23644
LeftToes  -3.37426e-010 -1.91496e-010 5.23909e-011
496
root  63.9404 38.5461 -1.15554 -112.309 -84.0243 108.468
RightUpLeg  -17.3156 -4.72003 -9.81404
RightLeg  10.5794 6.40255 0.681165
RightFoot  -1.05533 -0.89151 9.80935
RightToes  -2.9104e-010 0 -3.6325e-017
Spine  6.47032 1.55645 -0.170752
Spine1  5.25747 3.28874 -7.73748
HEad  7.83227 -45.25 0.0417753
LeftShoulder1  0.104542 3.19732 -27.9423
LeftArm  -6.31753 9.05034 -35.9355
LeftForeArm  25.7713 -31.5192 -5.46138
LeftHand  -0.0130483 6.18743 2.56576
RightShoulder  -0.186593 -4.25089 17.5129
RightArm  -16.5266 40.3526 21.81
RightForeArm  -19.9833 -3.85657 -0.249772
RightHand  -0.603906 10.1192 -4.91033
LeftUpLeg  1.83906 5.26021 -7.67921
LeftLeg  13.1212 6.23739 -0.533003
LeftFoot  -12.1071 0.113813 6.10217
LeftToes  -3.37426e-010 -1.91496e-010 5.23909e-011
497
root  62.9355 38.5574 -1.22239 -109.168 -83.9602 105.544
RightUpLeg  -15.9937 -8.56095 -8.50486
RightLeg  0.0479018 10.8384 -1.33927
RightFoot  -0.673562 -0.842737 8.95684
RightToes  -2.9104e-010 0 -3.6325e-017
Spine  6.05064 1.42266 0.208424
Spine1  5.31595 3.14758 -7.44193
HEad  7.92261 -45.5584 -0.0512679
LeftShoulder1  0.0688199 3.30148 -27.8445
LeftArm  -6.86161 8.89624 -35.5076
LeftForeArm  26.1805 -31.9234 -5.53662
LeftHand  -0.0135903 6.05484 2.72978
RightShoulder  -0.161863 -4.1808 16.3408
RightArm  -17.5991 40.8796 20.7728
RightForeArm  -20.6793 -5.2145 -0.604582
RightHand  -0.650241 10.3071 -5.20139
LeftUpLeg  4.2192 5.44675 -7.56895
LeftLeg  11.2645 5.71226 -0.883144
LeftFoot  -12.7647 0.149374 5.83468
LeftToes  -3.37426e-010 -1.91496e-010 5.23909e-011
498
root  61.8752 38.4444 -1.32974 -106.671 -83.8544 103.123
RightUpLeg  -15.8771 -9.29644 -8.55297
RightLeg  -3.59733 9.58026 -1.0924
RightFoot  -0.850008 -0.870827 9.33726
RightToes  -2.9104e-010 0 -3.6325e-017
Spine  5.40459 1.33313 1.06096
Spine1  5.65905 3.26305 -8.16214
HEad  8.33229 -46.0817 -0.36906
LeftShoulder1  0.15425 3.04326 -27.4034
LeftArm  -7.38576 8.84719 -35.3362
LeftForeArm  26.4968 -31.7619 -5.48024
LeftHand  -0.019078 5.6415 2.64998
RightShoulder  -0.19587 -4.33093 16.167
RightArm  -18.7147 40.8508 19.7014
RightForeArm  -22.0414 -5.05943 -0.852647
RightHand  -0.691545 11.0203 -5.29219
LeftUpLeg  6.06998 5.58879 -7.4906
LeftLeg  11.0832 5.28929 -0.84522
LeftFoot  -14.3334 0.223283 5.29109
LeftToes  -3.37426e-010 -1.91496e-010 5.23909e-011
499
root  60.7846 38.2645 -1.51086 -111.307 -83.8814 107.658
RightUpLeg  -16.8405 -8.93815 -7.95989
RightLeg  -0.255695 5.45467 -0.225061
RightFoot  0.502384 -0.940234 9.35072
RightToes  -2.9104e-010 0 -3.6325e-017
Spine  4.96658 1.50512 1.79284
Spine1  6.16742 3.5129 -8.40205
HEad  8.48001 -46.2486 -0.70202
LeftShoulder1  0.221415 2.83276 -26.8028
LeftArm  -8.41038 9.07243 -35.9262
LeftForeArm  26.0658 -30.8887 -5.29421
LeftHand  0.0156046 6.91959 3.74242
RightShoulder  -0.295955 -4.74056 16.7352
RightArm  -20.357 40.8516 18.7407
RightForeArm  -22.2937 -3.00767 -1.18671
RightHand  -0.777025 12.0035 -5.594
LeftUpLeg  7.68044 5.89249 -7.01387
LeftLeg  12.0079 5.2826 -0.415702
LeftFoot  -16.4978 0.298861 4.42582
LeftToes  -3.37426e-010 -1.91496e-010 5.23909e-011
500
root  59.6644 38.161 -1.71039 -121.399 -84.5549 117.415
RightUpLeg  -18.2852 -7.14039 -6.35405
RightLeg  5.80412 3.77134 -0.305845
RightFoot  4.81886 -0.504245 3.71418
RightToes  -2.9104e-010 0 -3.6325e-017
Spine  5.59123 1.43329 3.2656
Spine1  5.79328 3.3118 -7.84364
HEad  9.01357 -45.598 -1.67091
LeftShoulder1  0.11866 3.14809 -27.1594
LeftArm  -8.86361 10.174 -35.5792
LeftForeArm  25.536 -30.1674 -5.15415
LeftHand  0.00241744 6.59871 3.27929
RightShoulder  -0.330915 -4.87703 16.9195
RightArm  -21.4717 39.4681 19.4183
RightForeArm  -22.5348 2.75478 -1.35517
RightHand  -0.989943 13.5839 -6.45969
LeftUpLeg  9.92482 6.47521 -5.62624
LeftLeg  12.1895 5.23749 0.115926
LeftFoot  -18.0513 0.321301 3.62269
LeftToes  -3.37426e-010 -1.91496e-010 5.23909e-011
501
root  58.4337 38.0506 -1.93321 -127.263 -85.8443 122.675
RightUpLeg  -18.3569 -5.7613 -5.1918
RightLeg  10.3637 3.59214 0.0586509
RightFoot  7.53462 -0.317426 2.18336
RightToes  -2.9104e-010 0 -3.6325e-017
Spine  5.35159 1.04023 4.4561
Spine1  6.62761 2.66439 -6.42959
HEad  9.09335 -44.9162 -2.51132
LeftShoulder1  0.094333 3.22389 -27.4914
LeftArm  -8.51162 11.3361 -35.6929
LeftForeArm  24.9205 -28.7978 -4.87136
LeftHand  0.0117064 7.00331 3.25571
RightShoulder  -0.488532 -5.44999 18.0753
RightArm  -25.5539 37.3266 19.7453
RightForeArm  -20.5148 12.5101 -0.00374411
RightHand  -1.37509 15.6799 -7.98421
LeftUpLeg  12.2611 6.66466 -3.92032
LeftLeg  13.1034 4.59469 1.03118
LeftFoot  -19.389 0.302438 2.6531
LeftToes  -3.37426e-010 -1.91496e-010 5.23909e-011
502
root  57.1623 37.9607 -2.15868 -140.791 -87.2166 135.967
RightUpLeg  -18.5415 -4.87769 -3.84458
RightLeg  15.4158 3.00012 0.641243
RightFoot  5.81258 -0.08315 0.811824
RightToes  -2.9104e-010 0 -3.6325e-017
Spine  5.1541 0.453191 6.30828
Spine1  6.6441 1.8895 -5.51747
HEad  9.87028 -43.9698 -4.08447
LeftShoulder1  -0.0081503 3.52657 -27.7569
LeftArm  -7.0703 12.8534 -35.8124
LeftForeArm  24.1339 -26.9627 -4.50041
LeftHand  -0.0049452 6.75019 2.48267
RightShoulder  -0.683544 -6.03527 20.1705
RightArm  -35.2018 35.0723 19.384
RightForeArm  -8.63219 24.294 5.21236
RightHand  -1.73362 17.0403 -9.3743
LeftUpLeg  13.3177 6.63653 -1.70362
LeftLeg  15.8948 3.92687 1.60364
LeftFoot  -20.2052 0.157844 0.497807
LeftToes  -3.37426e-010 -1.91496e-010 5.23909e-011
